<svg version="1.1" id="Layer_1" xmlns="http://www.w3.org/2000/svg" xmlns:xlink="http://www.w3.org/1999/xlink" x="0px" y="0px"
	 width="100%" viewBox="0 0 1008 1024" enable-background="new 0 0 1008 1024" xml:space="preserve">
<path fill="#000000" opacity="1.000000" stroke="none" 
	d="
M225.558777,657.616577 
	C229.828918,656.270264 230.629730,652.950623 230.648346,649.566772 
	C230.765686,628.237366 230.684448,606.906921 230.787750,585.577393 
	C230.808670,581.257874 228.106003,581.362732 225.111496,581.365723 
	C204.447922,581.386536 183.784302,581.371033 163.120697,581.364136 
	C161.787750,581.363647 160.454834,581.329590 159.121857,581.324524 
	C157.101624,581.316772 156.045547,580.335938 155.973541,578.293274 
	C155.905884,576.373901 156.566254,574.901367 158.658157,574.817200 
	C164.040359,574.600464 164.859039,571.427734 164.850418,566.750793 
	C164.733002,503.093719 164.737366,439.436401 164.818069,375.779236 
	C164.823654,371.373383 164.211624,368.160248 158.881195,368.104736 
	C156.554764,368.080536 155.839005,366.466705 155.881378,364.346588 
	C155.932861,361.771393 157.549026,361.548126 159.614594,361.554382 
	C180.944183,361.619110 202.273941,361.624329 223.603622,361.665039 
	C225.564880,361.668793 227.810532,361.302521 228.119507,364.254669 
	C228.382294,366.765778 227.054825,367.857574 224.746201,368.294830 
	C219.848068,369.222656 219.268890,372.840698 219.272141,376.995697 
	C219.301254,414.323395 219.267807,451.651123 219.260086,488.978851 
	C219.254578,515.641541 219.335922,542.304688 219.182358,568.966553 
	C219.158401,573.125549 220.047302,575.002014 224.665146,574.927307 
	C229.056076,574.856201 230.887527,573.728149 230.840698,568.969788 
	C230.629150,547.475037 230.666382,525.976807 230.752106,504.480408 
	C230.859177,477.631866 247.324783,452.093811 272.110443,443.219971 
	C298.463287,433.785065 323.901764,435.707062 346.307159,454.509064 
	C351.311676,458.708710 351.182434,459.052063 346.663818,463.881348 
	C341.997742,468.868317 337.312775,473.837952 332.596008,478.776886 
	C331.601807,479.817963 330.712738,481.196381 328.518036,480.810242 
	C326.885223,475.985870 325.352478,470.948456 323.477783,466.041687 
	C320.891846,459.273376 316.991089,453.281311 311.893890,448.110260 
	C302.855316,438.940674 291.996124,441.438843 288.011749,453.731476 
	C286.265991,459.117554 285.305878,464.721924 285.303619,470.421936 
	C285.290558,503.082275 285.414246,535.743286 285.201935,568.402222 
	C285.168304,573.572632 286.855194,575.027405 291.801300,574.856934 
	C301.122040,574.535645 310.461975,574.757080 319.793854,574.785217 
	C322.148560,574.792297 324.843170,574.637085 324.820190,578.065369 
	C324.797699,581.420654 322.199402,581.370789 319.789001,581.370789 
	C310.123779,581.370667 300.456146,581.496765 290.794434,581.312744 
	C286.761688,581.235962 285.196289,582.544006 285.229553,586.768433 
	C285.396240,607.930664 285.325836,629.094849 285.302032,650.258362 
	C285.297638,654.182617 286.406860,657.178589 290.824493,657.792664 
	C293.330811,658.140930 294.230957,659.734924 293.942841,662.029053 
	C293.617279,664.621094 291.483429,664.357117 289.692596,664.361206 
	C276.861237,664.390503 264.029785,664.379456 251.198364,664.377380 
	C242.699631,664.376038 234.200851,664.382996 225.702225,664.351501 
	C223.891815,664.344788 221.888809,664.568298 221.625702,661.873047 
	C221.365143,659.203918 222.389282,657.711853 225.558777,657.616577 
z"/>
<path fill="#000000" opacity="1.000000" stroke="none" 
	d="
M546.447937,518.416870 
	C546.012939,520.250610 546.091919,522.180603 545.170776,523.045593 
	C539.793335,528.094788 542.245422,533.109802 544.729248,538.309326 
	C546.145874,541.274719 547.236328,544.395874 548.465820,547.427673 
	C540.820557,550.928467 536.851501,549.302673 534.431885,542.076355 
	C533.429443,539.082397 532.221313,536.156799 531.088318,533.207214 
	C530.593262,531.918396 529.921387,530.611816 528.310852,530.818848 
	C526.609985,531.037537 526.470459,532.583374 526.440491,533.911438 
	C526.361633,537.406311 526.151672,540.923523 526.440979,544.394592 
	C526.746216,548.056213 525.121399,549.212463 521.816589,548.948181 
	C518.661987,548.695740 514.678711,549.814575 514.819885,544.400146 
	C514.924011,540.406250 514.876709,536.408142 514.879578,532.411865 
	C514.885498,524.086182 515.129578,515.750000 514.782776,507.438782 
	C514.584473,502.687592 516.359009,501.206085 520.841980,501.608154 
	C524.145813,501.904480 527.520569,501.924988 530.823486,501.625183 
	C542.837708,500.534760 547.451843,507.950836 546.447937,518.416870 
M531.916931,520.600769 
	C535.552673,518.974304 535.517822,515.938049 534.237671,513.057495 
	C533.313782,510.978485 530.996826,510.068573 528.703674,510.914154 
	C525.547485,512.078003 526.463745,514.984070 526.436768,517.371216 
	C526.400085,520.623535 528.461304,521.188232 531.916931,520.600769 
z"/>
<path fill="#000000" opacity="1.000000" stroke="none" 
	d="
M800.954529,548.578735 
	C799.229187,547.498352 799.566284,546.099304 799.561523,544.796143 
	C799.513428,531.663330 799.537048,518.529602 799.361206,505.398499 
	C799.322266,502.485138 800.431091,501.583710 803.149841,501.648224 
	C807.802979,501.758698 812.468994,501.845428 817.114502,501.625061 
	C822.569214,501.366272 827.072449,502.833344 829.551147,507.987915 
	C832.244019,513.587769 832.614136,519.672852 828.742432,524.539673 
	C825.778625,528.265259 826.122986,531.069092 827.839233,534.792358 
	C829.761780,538.963196 831.244507,543.336731 832.913879,547.609802 
	C824.642822,550.828186 821.283264,549.379456 818.656860,541.861694 
	C817.779846,539.351440 816.864563,536.854004 816.030212,534.329651 
	C815.433899,532.525452 814.807190,530.825195 812.175232,530.823059 
	C810.357239,533.602234 811.317932,536.813354 811.277344,539.816772 
	C811.148376,549.346313 811.229919,549.347412 800.954529,548.578735 
M819.618835,516.331116 
	C819.945007,513.089233 818.104492,511.448975 815.289062,510.639618 
	C813.967529,510.259735 812.639099,510.373718 811.738586,511.641724 
	C810.632385,513.199341 811.125549,519.981689 812.538818,520.473877 
	C815.867798,521.633179 818.316162,520.496643 819.618835,516.331116 
z"/>
<path fill="#000000" opacity="1.000000" stroke="none" 
	d="
M696.784180,511.035767 
	C696.789368,509.380066 696.876709,508.207581 696.781860,507.050049 
	C696.492432,503.517029 697.278992,501.484253 701.618591,501.563049 
	C706.029480,501.643188 706.337585,503.945648 706.312317,507.322388 
	C706.222656,519.311340 706.276978,531.301453 706.280457,543.291077 
	C706.281128,545.814697 706.597717,548.602417 702.913452,548.760132 
	C699.539307,548.904602 695.922485,549.977966 694.167175,545.301331 
	C691.655212,538.608704 688.725403,532.072327 685.944824,525.481567 
	C685.186646,523.684509 684.323669,521.931641 683.224182,519.539001 
	C681.605042,527.891479 682.813171,535.508057 682.907471,543.104370 
	C682.949036,546.447937 682.613159,548.928528 678.235718,548.955688 
	C673.760071,548.983337 673.645569,546.405273 673.668701,543.104248 
	C673.752991,531.115234 673.831238,519.123047 673.630371,507.136749 
	C673.563538,503.146973 674.675232,501.748230 678.907043,501.512573 
	C684.356934,501.209076 687.489929,502.659454 689.197998,508.142609 
	C690.913269,513.648621 693.609802,518.848877 696.783081,524.128113 
	C696.783081,519.927307 696.783081,515.726562 696.784180,511.035767 
z"/>
<path fill="#000000" opacity="1.000000" stroke="none" 
	d="
M663.010681,503.684784 
	C669.877380,510.468109 670.509705,519.498779 664.557251,526.221130 
	C662.740173,528.273254 662.923889,529.935608 663.818176,532.061157 
	C665.940186,537.104675 667.998230,542.175049 670.073608,547.213989 
	C662.368286,550.895569 658.207458,549.271179 655.861145,541.967041 
	C654.893372,538.954224 653.898010,535.950195 652.897766,532.947998 
	C652.451843,531.609436 651.754395,530.408569 650.119507,530.595276 
	C648.299500,530.803101 648.348083,532.336121 648.329956,533.664368 
	C648.279846,537.330383 648.134399,541.004333 648.307739,544.661865 
	C648.539307,549.546875 645.084229,548.748352 642.188049,548.883057 
	C639.106995,549.026428 636.653748,548.781311 636.708435,544.509216 
	C636.872620,531.678528 636.813721,518.843262 636.676514,506.011566 
	C636.641724,502.761108 637.829041,501.348572 641.046631,501.679199 
	C648.246460,502.419037 655.713684,499.918945 663.010681,503.684784 
M655.443542,512.187683 
	C653.303650,510.940338 650.635559,508.901978 648.947632,511.775177 
	C647.512451,514.218079 647.402710,517.784851 649.126221,520.340149 
	C650.428101,522.270386 652.978882,521.238403 654.594727,520.231201 
	C657.568420,518.377686 657.255432,515.581055 655.443542,512.187683 
z"/>
<path fill="#000000" opacity="1.000000" stroke="none" 
	d="
M436.508423,522.570923 
	C436.751221,518.108765 437.676605,514.214355 439.244598,510.528870 
	C442.423431,503.057159 448.624542,499.917725 458.075165,500.763428 
	C464.703735,501.356628 469.230621,505.621857 470.914307,512.804749 
	C471.390961,514.838196 471.950317,517.253662 469.183350,517.595093 
	C466.394989,517.939148 462.975189,520.426575 460.757477,516.352173 
	C460.441650,515.771973 460.271637,515.114014 460.008453,514.503174 
	C459.035461,512.245117 457.670715,510.273621 454.931000,510.427795 
	C452.071808,510.588776 450.245239,512.707703 449.718567,515.148071 
	C448.308777,521.680359 447.777130,528.338562 449.700684,534.885925 
	C450.428619,537.363770 452.058014,539.317688 454.853516,539.789246 
	C456.675781,540.096619 458.074432,539.322083 459.184326,537.897217 
	C461.505890,534.916748 460.935394,532.728455 457.211426,532.114685 
	C453.460144,531.496643 453.981354,529.015259 454.007874,526.530701 
	C454.036774,523.825989 455.404510,522.879089 458.075623,522.696960 
	C471.348389,521.791809 471.343170,521.729248 471.346680,534.697632 
	C471.347443,537.527954 471.504181,540.368347 471.311066,543.184998 
	C471.185333,545.018311 472.454620,547.466736 469.997223,548.542664 
	C467.505310,549.633728 465.676147,547.978333 464.288544,546.157104 
	C452.533356,553.656067 439.720337,547.910095 437.466187,534.798950 
	C436.792206,530.878967 435.476227,527.046875 436.508423,522.570923 
z"/>
<path fill="#000000" opacity="1.000000" stroke="none" 
	d="
M759.453247,529.438293 
	C759.219055,521.164490 759.110291,513.346802 758.891113,505.532196 
	C758.762390,500.939392 762.023743,501.705078 764.765991,501.684937 
	C767.692505,501.663422 771.063049,500.916626 771.004578,505.731964 
	C770.907715,513.722717 770.964844,521.715393 770.955627,529.707275 
	C770.947571,536.648560 773.061340,540.774292 776.691162,540.106445 
	C782.561340,539.026550 781.934509,534.021973 781.995972,529.761963 
	C782.111328,521.771790 782.119995,513.777466 781.991821,505.787750 
	C781.937012,502.374878 783.594849,501.481110 786.618958,501.626740 
	C789.301025,501.755890 792.266602,501.228729 792.144287,505.381500 
	C791.826355,516.176025 792.998535,527.006470 791.294556,537.769165 
	C790.108521,545.260620 785.722107,549.150330 778.076477,549.320007 
	C776.079468,549.364319 774.077637,549.398315 772.083252,549.313721 
	C765.117920,549.018372 760.240845,544.331360 759.724487,537.382080 
	C759.539734,534.895569 759.589600,532.391663 759.453247,529.438293 
z"/>
<path fill="#000000" opacity="1.000000" stroke="none" 
	d="
M627.075806,542.653076 
	C623.037231,550.058716 613.694885,550.550537 605.784607,548.495911 
	C599.237610,546.795288 596.905518,542.248047 596.666809,533.678040 
	C596.411804,524.524780 597.111511,515.354309 596.114868,506.214996 
	C595.783508,503.176178 596.945679,501.249268 600.311707,501.714966 
	C603.327026,502.132172 607.942200,499.711487 608.068298,505.727295 
	C608.127686,508.558136 608.090210,511.391022 608.097961,514.222961 
	C608.113953,520.053589 608.040405,525.886353 608.173828,531.714294 
	C608.294983,537.005127 610.742126,540.687012 613.987854,540.218018 
	C618.671509,539.541077 619.401917,535.472107 619.503174,531.862915 
	C619.778198,522.060059 619.597473,512.244446 619.597473,502.558197 
	C627.974976,500.322723 629.395447,501.242462 629.227539,509.068237 
	C629.020752,518.701050 630.103577,528.380615 628.310242,537.960022 
	C628.036621,539.421814 627.613831,540.855530 627.075806,542.653076 
z"/>
<path fill="#000000" opacity="1.000000" stroke="none" 
	d="
M430.333466,519.001038 
	C430.148743,525.820190 430.811096,532.168945 429.628510,538.454224 
	C428.392029,545.026062 423.883972,549.007019 417.224152,549.305054 
	C415.560608,549.379456 413.891235,549.338928 412.224701,549.328491 
	C403.848022,549.276123 398.412384,544.860474 398.045166,536.472412 
	C397.550690,525.177490 397.922455,513.844604 397.922455,502.592926 
	C399.590607,501.056458 401.518066,501.902130 403.269073,501.669128 
	C407.710785,501.077972 409.572815,502.733551 409.371094,507.469360 
	C409.045166,515.122009 409.289825,522.798889 409.289276,530.465515 
	C409.289154,532.467651 409.313171,534.443604 410.110046,536.356750 
	C411.037781,538.584106 412.516571,540.007996 415.012878,539.835938 
	C417.361603,539.674072 419.000641,538.518127 419.763550,536.108948 
	C420.690063,533.183289 420.696594,530.208008 420.692566,527.206482 
	C420.681427,518.908264 420.688721,510.610107 420.688721,502.621948 
	C422.859772,501.120026 424.742889,501.833099 426.518860,501.678009 
	C429.299835,501.435089 430.415314,502.747192 430.349854,505.502136 
	C430.246918,509.832886 430.329529,514.168030 430.333466,519.001038 
z"/>
<path fill="#000000" opacity="1.000000" stroke="none" 
	d="
M501.750549,509.379578 
	C505.428955,522.366943 508.974701,534.966003 512.505371,547.511475 
	C504.822723,550.650269 501.545471,549.516785 499.509796,542.730652 
	C498.448975,539.194214 496.098389,539.209717 493.350159,539.270691 
	C490.370209,539.336792 487.431030,538.887573 486.169678,542.907654 
	C484.100800,549.501221 481.807037,550.333557 474.754669,547.729370 
	C474.136108,544.627075 475.905731,541.977417 476.718597,539.180298 
	C479.827209,528.483215 483.415588,517.917908 486.246979,507.151428 
	C487.597992,502.014282 490.583679,501.682617 494.976044,501.521118 
	C499.743988,501.345734 500.347382,504.313812 501.235413,507.543518 
	C501.367737,508.024780 501.490631,508.508636 501.750549,509.379578 
M490.521667,523.905396 
	C490.415131,525.668396 489.605530,527.419006 490.410034,529.287476 
	C492.147217,530.060852 494.629669,530.556152 495.170227,528.744202 
	C496.329254,524.859253 494.129974,521.277588 492.995544,517.312683 
	C491.290741,519.269958 491.414490,521.366638 490.521667,523.905396 
z"/>
<path fill="#000000" opacity="1.000000" stroke="none" 
	d="
M856.903442,510.378357 
	C848.749268,510.391937 847.947937,511.024170 848.334290,516.132202 
	C848.523682,518.636047 849.626831,519.746948 852.078186,519.702271 
	C853.740967,519.671997 855.414795,519.835938 857.066528,519.701721 
	C860.706543,519.406189 862.516541,520.428833 862.454224,524.642029 
	C862.392395,528.822693 860.209839,529.258362 857.049377,529.107544 
	C856.053467,529.059998 855.049011,529.158203 854.056152,529.085510 
	C850.293945,528.810242 848.213318,529.848389 848.231934,534.302063 
	C848.249573,538.526184 849.803284,540.017395 853.829529,539.709778 
	C856.309998,539.520325 858.829529,539.843262 861.309937,539.653748 
	C864.978882,539.373352 866.262695,540.885315 866.299438,544.544861 
	C866.337463,548.337219 864.427307,548.979980 861.326599,548.938538 
	C854.673523,548.849426 848.016296,548.794312 841.365295,548.935486 
	C837.859741,549.009888 836.750854,547.514099 836.780334,544.144165 
	C836.891052,531.502197 836.889282,518.857422 836.736145,506.216034 
	C836.693848,502.717499 837.987488,501.528320 841.415405,501.616669 
	C848.231323,501.792236 855.064880,501.874176 861.872009,501.568298 
	C865.703369,501.396149 866.237854,503.179504 866.311279,506.327484 
	C866.389709,509.692291 865.023743,510.832428 861.840820,510.456482 
	C860.362366,510.281860 858.849792,510.395569 856.903442,510.378357 
z"/>
<path fill="#000000" opacity="1.000000" stroke="none" 
	d="
M565.626526,505.714966 
	C565.321655,502.829895 566.157959,501.585907 568.879517,501.630371 
	C576.191467,501.749908 583.506531,501.732941 590.819885,501.690460 
	C593.739441,501.673492 594.492554,503.337524 594.495483,505.837128 
	C594.498596,508.438995 593.989258,510.484802 590.703796,510.381378 
	C588.047241,510.297760 585.371704,510.554321 582.729126,510.346893 
	C578.667969,510.028076 577.158813,511.576172 577.144836,515.761292 
	C577.130615,520.011230 578.769897,521.291626 582.768677,521.146973 
	C586.340027,521.017822 590.905945,519.817505 590.378784,526.340088 
	C590.133057,529.380249 588.972290,530.497253 586.086182,530.323120 
	C584.430481,530.223267 582.761658,530.365540 581.101135,530.316406 
	C578.334351,530.234619 577.215759,531.610779 577.264465,534.286499 
	C577.324890,537.609619 577.053772,540.950867 577.303162,544.255798 
	C577.682861,549.288696 574.315796,548.786377 571.108032,548.908936 
	C567.632385,549.041687 565.525940,548.377930 565.602722,544.045410 
	C565.826355,531.416809 565.655701,518.781128 565.626526,505.714966 
z"/>
<path fill="#000000" opacity="1.000000" stroke="none" 
	d="
M747.747925,534.528870 
	C747.659180,537.641602 747.359741,540.328796 747.635437,542.955688 
	C748.023804,546.655884 747.669800,549.056763 742.942383,548.962097 
	C736.626099,548.835632 735.904480,548.522827 735.882507,542.991394 
	C735.848755,534.493591 735.733643,525.992004 735.938538,517.498901 
	C736.038635,513.351074 735.363647,510.738403 730.303955,511.177185 
	C726.493591,511.507629 726.962463,508.379272 726.881470,505.895966 
	C726.801697,503.452087 727.270508,501.652405 730.348694,501.681030 
	C738.179199,501.753967 746.010986,501.712006 753.842041,501.673981 
	C756.989319,501.658691 757.228821,503.750122 757.126709,506.072540 
	C757.028015,508.319885 757.584290,510.769958 754.054871,511.287201 
	C747.058716,512.312561 747.136414,512.445251 747.452881,519.601807 
	C747.666016,524.422302 747.687012,529.251221 747.747925,534.528870 
z"/>
<path fill="#000000" opacity="1.000000" stroke="none" 
	d="
M368.091461,529.965210 
	C368.090210,521.831238 368.179169,514.189941 368.038025,506.552795 
	C367.974670,503.124207 368.772064,501.181122 372.766174,501.606842 
	C376.249969,501.978210 380.342651,500.590759 380.154755,506.661499 
	C379.882599,515.455139 380.245728,524.267517 380.026642,533.064148 
	C379.922058,537.263306 381.153290,539.412781 385.657898,538.841370 
	C386.964996,538.675476 388.317902,538.906189 389.639282,538.810364 
	C392.982880,538.567749 394.421722,539.894165 394.402527,543.407532 
	C394.384613,546.684814 393.886017,548.963867 389.951752,548.911194 
	C383.974060,548.831055 377.994843,548.864197 372.016266,548.849548 
	C369.356354,548.843079 368.319336,547.814758 368.448120,544.880188 
	C368.658417,540.087830 368.240692,535.267822 368.091461,529.965210 
z"/>
<path fill="#000000" opacity="1.000000" stroke="none" 
	d="
M724.349609,531.990356 
	C724.351501,536.473022 724.124207,540.475098 724.421143,544.437805 
	C724.697021,548.119751 723.074097,549.197937 719.777527,548.894287 
	C716.685974,548.609558 712.777161,549.978394 712.832336,544.444092 
	C712.961243,531.494690 712.947693,518.542236 712.823425,505.592651 
	C712.784180,501.501617 715.326538,501.533875 718.113403,501.690613 
	C720.872742,501.845856 724.440002,500.578613 724.370605,505.591797 
	C724.251221,514.223816 724.344910,522.858765 724.349609,531.990356 
z"/>
<path fill="#000000" opacity="1.000000" stroke="none" 
	d="
M626.092163,566.621826 
	C629.289551,564.370605 629.531006,567.099548 629.962891,568.797607 
	C630.642395,571.469055 630.925415,574.241394 632.076294,577.050537 
	C632.707031,574.355164 633.288330,571.646912 633.987488,568.969360 
	C634.389282,567.430481 634.466858,565.342834 636.781311,565.526978 
	C638.946838,565.699402 638.963013,567.686646 639.304871,569.286682 
	C639.807007,571.637085 640.311890,573.986877 640.942871,576.930237 
	C643.406128,572.916382 641.754028,568.276978 645.095581,565.523560 
	C647.438904,566.218323 647.090149,567.862671 646.804382,569.275879 
	C646.048889,573.011963 645.105957,576.709839 644.317322,580.439697 
	C643.962646,582.117065 643.184326,583.135559 641.351807,583.149780 
	C639.436890,583.164551 638.816833,581.925842 638.457947,580.348083 
	C637.981995,578.255676 637.467651,576.171997 636.692200,572.920532 
	C635.833862,576.026611 635.277222,578.092163 634.690369,580.149109 
	C634.213318,581.820984 633.575012,583.326843 631.386475,583.143860 
	C629.512146,582.987183 628.959045,581.676575 628.643799,580.118835 
	C627.757080,575.737366 626.862000,571.357544 626.092163,566.621826 
z"/>
<path fill="#000000" opacity="1.000000" stroke="none" 
	d="
M574.106628,565.511353 
	C576.680298,566.266968 576.225342,568.134644 576.297485,569.722656 
	C576.663330,577.769775 576.473328,579.560730 575.020508,582.625366 
	C573.158630,580.736206 573.158630,580.736206 572.791077,573.880981 
	C571.929993,575.995789 571.254456,577.628906 570.599976,579.270386 
	C570.059265,580.626282 569.879395,582.385559 567.948914,582.440674 
	C565.718628,582.504333 565.560974,580.482239 564.936035,579.023987 
	C564.311890,577.567322 563.794006,576.065125 563.009644,574.005371 
	C561.596191,577.225586 563.368164,580.534729 561.306824,582.767822 
	C558.938232,582.860046 558.796143,581.441711 558.770569,580.117065 
	C558.700195,576.466248 558.722595,572.813477 558.722778,569.161499 
	C558.722839,567.438354 558.827881,565.747009 561.037048,565.380737 
	C563.120483,565.035339 564.016479,566.289490 564.620972,568.019165 
	C565.523499,570.601501 566.495972,573.159424 567.494141,575.878662 
	C571.118591,572.890808 568.700378,567.031921 574.106628,565.511353 
z"/>
<path fill="#000000" opacity="1.000000" stroke="none" 
	d="
M480.215240,583.066711 
	C474.825439,581.577148 475.591522,576.119019 472.265472,572.375671 
	C472.265472,575.343628 472.311737,577.726379 472.247375,580.106201 
	C472.211212,581.444946 472.109222,583.000916 470.215637,582.872681 
	C468.666168,582.767578 468.641388,581.393188 468.638092,580.220398 
	C468.627350,576.397644 468.645233,572.574768 468.672272,568.752075 
	C468.683319,567.193176 468.850128,565.677490 470.808594,565.353577 
	C472.758026,565.031189 473.903259,565.985413 474.661469,567.726746 
	C475.760193,570.250183 476.980835,572.720520 478.392395,575.731812 
	C479.784424,572.016052 478.066742,568.434998 480.361115,565.494568 
	C483.141693,568.724731 483.158478,579.273499 480.215240,583.066711 
z"/>
<path fill="#000000" opacity="1.000000" stroke="none" 
	d="
M863.630493,580.437500 
	C862.688904,578.897400 862.209045,577.262573 860.364197,577.663696 
	C857.919800,578.682800 859.896545,583.457336 856.611389,582.672913 
	C853.547241,581.941345 855.247253,578.412781 854.858948,576.122864 
	C854.693970,575.149963 854.809814,574.128906 854.803406,573.129700 
	C854.753906,565.420288 854.754333,565.420227 862.198303,565.525879 
	C866.893066,565.592529 869.684998,568.643066 867.935913,572.834290 
	C866.530151,576.202820 866.941162,579.169189 867.711365,582.293945 
	C865.349060,583.921021 864.640991,582.171021 863.630493,580.437500 
M864.141785,572.086487 
	C864.740479,569.349854 863.299683,568.245605 860.898010,568.680481 
	C859.073425,569.010803 858.759155,570.874268 859.406799,572.275024 
	C860.474915,574.584961 862.187683,574.067383 864.141785,572.086487 
z"/>
<path fill="#000000" opacity="1.000000" stroke="none" 
	d="
M400.432617,567.897522 
	C400.792847,568.892639 401.182465,569.552063 401.117249,570.163025 
	C400.665314,574.396301 398.159943,578.379761 400.700043,582.753418 
	C396.977356,583.265137 396.938965,580.886597 396.028473,579.495728 
	C395.376007,578.498962 394.810822,577.427551 393.432648,577.479858 
	C391.932465,577.536743 391.577423,578.639282 391.458862,579.892151 
	C391.337280,581.176880 391.577057,582.940796 389.689911,582.871155 
	C387.583588,582.793274 387.829132,580.869995 387.784332,579.425476 
	C387.712128,577.096924 387.577789,574.745911 387.811340,572.438965 
	C388.046997,570.111511 386.315063,566.487854 389.237091,565.753723 
	C392.795044,564.859741 397.173859,563.499146 400.432617,567.897522 
M395.131775,573.491882 
	C397.268738,572.064819 397.556030,570.371155 395.417480,568.844666 
	C394.242859,568.006165 392.752289,568.344177 392.126312,569.815308 
	C391.189209,572.017761 391.391998,573.755859 395.131775,573.491882 
z"/>
<path fill="#000000" opacity="1.000000" stroke="none" 
	d="
M775.146118,580.843079 
	C774.126953,579.174133 773.761841,577.282654 771.252930,577.567566 
	C771.006531,577.969971 770.545715,578.464661 770.379089,579.044006 
	C769.909241,580.676758 770.388916,583.279724 767.638611,582.807739 
	C765.560120,582.451111 766.026978,580.207825 765.966003,578.615601 
	C765.889832,576.627625 765.946167,574.634460 765.955017,572.643494 
	C765.986633,565.538879 765.988159,565.538879 772.914551,565.549988 
	C778.653259,565.559204 780.934265,568.720947 778.784912,574.224304 
	C778.014832,576.195984 777.353455,577.806824 778.481018,579.793274 
	C779.043640,580.784302 779.518921,582.122192 778.019226,582.756592 
	C776.617310,583.349609 775.965759,582.149353 775.146118,580.843079 
M772.497253,573.742126 
	C775.074219,573.613708 776.263977,572.321899 775.170227,569.875427 
	C774.479858,568.331116 772.632568,567.809509 771.392578,568.840454 
	C769.619202,570.315002 769.560425,572.204895 772.497253,573.742126 
z"/>
<path fill="#000000" opacity="1.000000" stroke="none" 
	d="
M430.910950,565.185852 
	C432.013580,565.576782 433.191406,565.817505 433.362122,566.369629 
	C434.997528,571.658936 436.462891,577.000854 437.495789,583.029541 
	C433.051544,580.385254 428.966400,575.622375 424.824646,583.978149 
	C423.323700,577.624939 426.247742,573.237488 426.876801,568.542664 
	C427.150055,566.503235 428.283722,565.194397 430.910950,565.185852 
z"/>
<path fill="#000000" opacity="1.000000" stroke="none" 
	d="
M798.196777,580.827209 
	C797.738708,583.165039 796.384583,583.437134 795.426392,582.020081 
	C792.201904,577.250977 789.606079,579.013550 786.937683,582.478149 
	C786.688660,582.801453 786.069641,582.839783 785.401917,583.094543 
	C783.647400,581.001770 784.989685,578.991760 785.479919,577.037109 
	C786.168030,574.293396 787.081909,571.601501 787.666687,568.838318 
	C788.154114,566.535095 789.302551,565.262573 791.698608,565.269226 
	C794.060425,565.275879 794.704041,566.980713 795.185852,568.837036 
	C796.188232,572.699341 797.192688,576.561035 798.196777,580.827209 
z"/>
<path fill="#000000" opacity="1.000000" stroke="none" 
	d="
M760.121948,577.011658 
	C760.256897,579.210083 762.155823,581.112915 759.510925,583.252319 
	C755.982178,577.388000 752.036926,578.321777 748.341614,583.550903 
	C747.198669,580.127991 749.680603,567.449097 751.619507,566.151978 
	C753.821106,564.679077 756.135193,564.539124 757.234863,567.584290 
	C758.304260,570.545776 759.106689,573.603516 760.121948,577.011658 
z"/>
<path fill="#000000" opacity="1.000000" stroke="none" 
	d="
M537.836182,576.671143 
	C537.784302,575.240784 537.710266,574.241760 537.753296,573.247742 
	C538.002991,567.478394 540.555359,564.664246 545.350891,564.828979 
	C549.955505,564.987061 552.155762,567.677856 552.272644,573.294006 
	C552.423950,580.557617 551.136658,582.840637 546.442871,583.633545 
	C541.621582,584.447998 539.215393,582.615845 537.836182,576.671143 
M548.791992,575.178345 
	C548.729248,572.218933 549.252197,568.617981 544.899780,568.544617 
	C542.013245,568.495972 541.347961,571.081116 541.313049,573.570557 
	C541.275879,576.216003 540.912231,579.223328 544.408936,580.002075 
	C547.496643,580.689819 548.437073,578.536865 548.791992,575.178345 
z"/>
<path fill="#000000" opacity="1.000000" stroke="none" 
	d="
M837.118652,579.647339 
	C837.065979,575.861755 837.024780,572.536499 837.022034,569.211243 
	C837.019592,566.309631 838.419556,564.592712 841.353027,565.418945 
	C843.862549,566.125793 847.290771,563.416199 849.205017,567.323547 
	C847.057861,569.783630 842.267639,566.765686 841.493042,571.097534 
	C842.714966,573.893494 846.343018,571.389832 847.367798,574.140930 
	C847.233704,574.496826 847.177795,574.832886 847.001221,575.083923 
	C845.681458,576.959656 841.280151,574.821777 841.788635,578.255737 
	C842.212402,581.117981 845.943176,579.120850 847.816040,580.402344 
	C848.199036,580.664429 848.466187,581.095764 848.791565,581.454407 
	C844.915405,584.716675 839.086487,584.006775 837.118652,579.647339 
z"/>
<path fill="#000000" opacity="1.000000" stroke="none" 
	d="
M501.749634,566.680908 
	C501.070740,569.013550 499.374725,568.361755 497.986542,568.344666 
	C495.932648,568.319397 493.735840,568.221497 492.862854,570.461792 
	C491.820953,573.135559 491.697845,576.006470 493.128387,578.630066 
	C493.897858,580.041321 495.386993,580.885498 496.922363,580.040039 
	C500.281158,578.190430 496.514038,576.480530 496.604095,574.380554 
	C498.464539,572.851257 500.866119,572.428528 501.759766,574.875488 
	C502.697205,577.442444 503.783813,581.435974 500.465698,582.886353 
	C494.790588,585.366943 489.116211,583.328552 488.796844,576.727295 
	C488.617310,573.016418 487.595581,568.748474 491.406311,566.190247 
	C494.649536,564.012878 498.276367,564.190613 501.749634,566.680908 
z"/>
<path fill="#000000" opacity="1.000000" stroke="none" 
	d="
M518.154785,582.064819 
	C517.874451,577.229004 517.769043,572.763000 517.724854,568.296265 
	C517.713379,567.139282 517.756897,565.784485 519.296875,565.621887 
	C520.810120,565.462036 521.311279,566.600281 521.285522,567.866150 
	C521.228821,570.643494 521.628784,572.776001 525.248657,572.668701 
	C529.169922,572.552368 528.468689,569.727234 528.773499,567.366638 
	C528.848877,566.782837 529.248413,566.240784 529.526367,565.617981 
	C532.639465,568.178894 533.070740,578.202881 530.432129,582.738647 
	C528.252991,582.378723 528.714294,580.574158 528.687866,579.234558 
	C528.631653,576.388672 526.815369,576.145081 524.650269,576.123230 
	C522.401917,576.100586 521.278381,577.014648 521.344482,579.383179 
	C521.398438,581.316467 521.810364,583.841736 518.154785,582.064819 
z"/>
<path fill="#000000" opacity="1.000000" stroke="none" 
	d="
M689.854980,571.822754 
	C690.490601,569.646851 690.863770,567.749878 691.260986,565.730896 
	C694.926758,568.216309 695.158508,579.066650 691.763550,583.056030 
	C689.287598,581.291931 692.630493,575.379395 686.520203,576.004150 
	C681.589478,576.508362 684.608582,581.119141 682.284607,582.757996 
	C680.048767,583.084717 679.807983,581.500977 679.774536,579.974304 
	C679.690613,576.146118 679.695557,572.314697 679.742920,568.485535 
	C679.759094,567.179199 679.755371,565.566284 681.684204,565.666382 
	C683.250427,565.747681 683.321289,567.162109 683.294312,568.315857 
	C683.177307,573.323181 686.107483,573.149292 689.854980,571.822754 
z"/>
<path fill="#000000" opacity="1.000000" stroke="none" 
	d="
M731.579407,577.614136 
	C731.369202,578.806335 731.320312,579.633362 731.225769,580.455261 
	C731.091553,581.622009 730.995300,582.934998 729.364502,582.826050 
	C727.849121,582.724854 727.620056,581.468628 727.594299,580.281067 
	C727.508118,576.308167 727.464417,572.333923 727.449524,568.360046 
	C727.445190,567.199524 727.482605,565.813599 728.980469,565.654175 
	C730.771667,565.463440 731.026550,566.902588 731.220825,568.283081 
	C731.419312,569.693115 730.802917,571.643982 732.560425,572.223145 
	C734.761353,572.948425 737.271179,573.492188 737.902954,569.981140 
	C738.175903,568.464172 737.438293,566.567505 739.393860,565.612488 
	C741.969849,568.265503 742.202271,578.797913 739.629639,583.019897 
	C736.857361,581.276306 738.842590,572.544434 731.579407,577.614136 
z"/>
<path fill="#000000" opacity="1.000000" stroke="none" 
	d="
M599.775391,569.979919 
	C602.110718,564.048035 606.738770,563.007996 611.315613,567.055786 
	C609.882874,570.287537 605.031189,566.196289 603.970215,570.800049 
	C607.615356,573.225098 615.318848,573.856506 611.005920,581.116882 
	C608.619385,585.134277 604.253113,584.236267 600.195557,582.284912 
	C601.410583,577.693909 606.960815,582.116211 608.254272,577.716919 
	C606.057983,574.783569 599.789490,575.955750 599.775391,569.979919 
z"/>
<path fill="#000000" opacity="1.000000" stroke="none" 
	d="
M417.921600,567.860535 
	C416.808868,568.178894 415.987671,568.308289 415.161560,568.363586 
	C413.496857,568.474976 411.486755,568.315125 411.407074,570.632568 
	C411.333374,572.775208 413.300781,572.512634 414.721161,572.763550 
	C415.528290,572.906189 416.385742,572.991211 416.701263,573.988525 
	C416.793427,575.303589 415.796021,575.565552 414.844208,575.892700 
	C413.409668,576.385864 410.931183,575.587402 410.967468,578.000977 
	C411.003845,580.420471 413.372284,579.688904 414.884277,579.924683 
	C416.316559,580.147949 417.911530,580.007507 418.350616,581.936523 
	C410.589508,585.645325 406.834747,583.618164 406.812195,575.853210 
	C406.809296,574.853943 406.801147,573.854614 406.791107,572.855347 
	C406.718140,565.587402 411.054291,562.847778 417.883392,565.894653 
	C418.593231,566.211365 418.491394,566.979736 417.921600,567.860535 
z"/>
<path fill="#000000" opacity="1.000000" stroke="none" 
	d="
M592.015015,568.400146 
	C589.990417,568.602234 587.437683,567.668030 587.364258,570.403503 
	C587.269531,573.937073 591.383728,571.718872 592.667480,573.785217 
	C592.898193,575.655579 591.407288,575.720154 590.139343,575.997803 
	C588.751282,576.301758 586.702759,576.017090 586.952698,578.200195 
	C587.184143,580.222229 589.184570,579.715393 590.585632,579.915466 
	C592.012878,580.119324 593.676270,579.801636 594.487793,582.134399 
	C591.410095,584.198303 587.836304,583.662109 584.775330,582.870056 
	C581.648743,582.060974 583.082581,578.682556 582.821228,576.356384 
	C582.710693,575.372314 582.815918,574.364685 582.811707,573.367798 
	C582.777771,565.302063 585.081421,563.510803 592.959778,565.464355 
	C593.797241,565.671997 594.663513,565.896606 594.575256,566.965515 
	C594.465088,568.299805 593.370239,568.331360 592.015015,568.400146 
z"/>
<path fill="#000000" opacity="1.000000" stroke="none" 
	d="
M815.104431,581.184814 
	C813.564148,585.006531 810.648376,583.826660 808.000977,583.328430 
	C805.413147,582.841309 803.896484,581.114014 803.766968,578.506348 
	C803.619385,575.533630 803.573608,572.532471 803.815369,569.570801 
	C804.026367,566.986084 805.715881,565.276001 808.295532,564.965576 
	C810.928650,564.648743 813.839722,564.073608 815.390137,567.040833 
	C814.964966,568.403564 814.107422,568.600525 813.295044,568.468140 
	C808.748779,567.727051 806.826782,569.955261 806.628723,574.213562 
	C806.411865,578.873657 809.036011,580.295105 813.210754,580.080505 
	C813.779236,580.051270 814.376709,580.586304 815.104431,581.184814 
z"/>
<path fill="#000000" opacity="1.000000" stroke="none" 
	d="
M713.238037,576.567017 
	C713.789307,579.440369 715.579285,579.951965 717.746643,580.006409 
	C719.171631,580.042175 720.851013,579.748230 721.301575,582.152039 
	C718.878540,584.456177 716.049377,584.167175 713.214355,583.065002 
	C710.543640,582.026855 709.694580,579.746033 709.699341,577.057678 
	C709.703125,574.903748 709.650024,572.745911 709.760071,570.596924 
	C709.889343,568.075500 710.989014,566.074585 713.537109,565.320068 
	C716.417603,564.467224 719.281433,564.124634 722.318787,567.903870 
	C716.297852,568.025452 711.569275,569.238647 713.238037,576.567017 
z"/>
<path fill="#000000" opacity="1.000000" stroke="none" 
	d="
M369.924988,574.929932 
	C370.064545,571.042358 369.551636,567.306274 373.703766,565.564331 
	C376.642883,564.331116 379.341583,564.544067 383.102386,567.462708 
	C378.055176,568.631592 372.961761,567.769470 373.108459,574.572021 
	C373.251312,581.197144 378.411560,579.725647 382.529022,581.016418 
	C379.499237,584.145203 376.727631,584.259155 373.847290,583.211731 
	C370.156708,581.869629 369.999359,578.602783 369.924988,574.929932 
z"/>
<path fill="#000000" opacity="1.000000" stroke="none" 
	d="
M827.289185,577.000366 
	C826.981934,579.275818 828.063660,581.493042 825.674500,582.941345 
	C822.962524,581.514343 823.978027,578.942505 823.853271,576.840820 
	C823.618103,572.880066 825.405090,568.084045 818.420410,567.466431 
	C822.856506,564.155701 829.444763,564.340759 832.695129,567.610962 
	C826.046021,567.884460 827.324951,572.565918 827.289185,577.000366 
z"/>
<path fill="#000000" opacity="1.000000" stroke="none" 
	d="
M452.804749,568.067749 
	C449.295959,568.601440 449.212036,570.861511 449.044067,573.343384 
	C448.831146,576.488953 450.136108,579.929138 447.552948,583.028320 
	C444.580261,580.771057 445.724152,577.745972 445.775726,575.218933 
	C445.851685,571.497009 445.647308,568.277588 440.962555,566.888794 
	C444.899933,565.197632 448.744415,564.592957 452.728882,565.546326 
	C453.905487,565.827820 454.016968,566.917358 452.804749,568.067749 
z"/>
<path fill="#000000" opacity="1.000000" stroke="none" 
	d="
M666.363220,580.767212 
	C666.415344,578.866455 666.484314,577.369507 666.578247,575.874146 
	C666.822021,571.990356 667.271790,568.001587 661.542297,567.524719 
	C664.551819,564.329773 670.588196,564.153259 674.850525,567.229004 
	C666.918213,568.776184 669.851379,574.761963 669.339417,579.408386 
	C669.203186,580.645447 669.747986,582.298401 667.964478,582.726685 
	C667.005981,582.956848 666.617126,582.005249 666.363220,580.767212 
z"/>
<path fill="#000000" opacity="1.000000" stroke="none" 
	d="
M461.732300,565.837769 
	C463.936401,570.842957 462.729370,575.823303 462.778229,580.736816 
	C462.788177,581.738342 462.250885,582.687378 461.060364,582.855408 
	C460.082642,582.993408 459.312897,582.392334 459.245575,581.549805 
	C458.838623,576.458069 458.129211,571.337341 459.672150,566.314758 
	C459.782623,565.955139 460.791199,565.871460 461.732300,565.837769 
z"/>
<path fill="#000000" opacity="1.000000" stroke="none" 
	d="
M656.228882,567.633240 
	C656.138428,572.995361 656.740540,578.001404 655.884094,582.639587 
	C653.511841,582.895569 652.904419,582.059875 652.874939,581.027100 
	C652.752441,576.738220 652.560425,572.435730 652.783508,568.158447 
	C652.921326,565.514648 654.050659,563.963928 656.228882,567.633240 
z"/>
</svg>